<svg xmlns="http://www.w3.org/2000/svg" viewBox="0 0 49.51 49.69"><defs><style>.cls-1{fill:#d7b09e;}.cls-2{fill:#819ea0;fill-rule:evenodd;}</style></defs><title>Asset 9</title><g id="Layer_2" data-name="Layer 2"><g id="Still"><g id="Socials"><circle class="cls-1" cx="27.5" cy="23.94" r="21.75"/><path class="cls-2" d="M32.15,49.57c-.09-6,.09-11.78.19-17.62,2.14-.12,5,0,6.81-.21a20.53,20.53,0,0,0,.55-3.47,30.43,30.43,0,0,0,.56-4.2c-1.83-.09-5.47.21-8.11-.06.06,0,0-3.34,0-3.65,0-1.71.19-3.92,2.17-4.49,1.46-.41,3.37.07,5.23-.38.61-.65.38-1.85.39-3.1a10.08,10.08,0,0,0-.2-3.3c-1.18-.7-2.67-.39-4-.38a19.86,19.86,0,0,0-5.11.37,7.81,7.81,0,0,0-4,2.83A11,11,0,0,0,24.46,17a14.14,14.14,0,0,0-.11,2.52c.07,2.34,0,4.08,0,4.72-1.69.11-3.86.1-5.61.12,0,1.21,0,2.06,0,3.49s.12,2.71.12,3.78c1.61,0,3.74.1,5.49.29V49.57H14.91c-3.64,0-7.57.36-10.07-.19A7,7,0,0,1,1,46.28,15.06,15.06,0,0,1,0,44V5.8A7.1,7.1,0,0,1,5.61.18c2.89-.41,6.42,0,9.88,0C24.85.18,36.1,0,44.93.38c2.52,0,4.14,3,4.26,4.26.35,8.27.2,20.63.2,30.4,0,4.15.58,8.85-.77,11.24a8.71,8.71,0,0,1-3.3,2.91c-1.66.64-4,.38-6.39.38Z"/></g></g></g></svg>