<svg xmlns="http://www.w3.org/2000/svg" viewBox="0 0 64.69 48.57"><defs><style>.cls-1{fill:#d7b09e;}.cls-2{fill:#c0e2e7;}.cls-3{fill:#819ea0;}</style></defs><title>Asset 7</title><g id="Layer_2" data-name="Layer 2"><g id="Still"><g id="Socials"><circle class="cls-1" cx="32.34" cy="25.45" r="20.17"/><path class="cls-2" d="M56.89,48.54c-.2,0-.28,0-.28-.26q0-18.08,0-36.16V12a1,1,0,0,0-.21.1L35.17,27.61l-2.78,2-3.75,2.9,3.75-2.9-.25-.13-8.65-6.3-3.22-2.33-.14-.11L8.28,12.14a1.36,1.36,0,0,0-.21-.1c0,.56,0,1.12,0,1.67,0,0,0,.1,0,.15V48.24c0,.29,0,.29-.29.29H3.71a1.55,1.55,0,0,0,.29,0H7.86a1.09,1.09,0,0,0,.25,0c3.15,0,6.3,0,9.44,0l25.91,0H60.6l.43,0Z"/><path class="cls-2" d="M6.45.82l9.2,6.71q8.26,6,16.52,12a.25.25,0,0,0,.36,0l3.25-2.37L58.24.82a4.28,4.28,0,0,1,.89-.49C59.55.19,60,.11,60.44,0H4.17l.21,0A4.1,4.1,0,0,1,6.45.82Z"/><path class="cls-3" d="M64.68,4.53c0-.17,0-.34,0-.51A4,4,0,0,0,63.14.87,4.13,4.13,0,0,0,60.44,0c-.44.11-.89.19-1.31.33a4.28,4.28,0,0,0-.89.49L35.78,17.18l-3.25,2.37a.25.25,0,0,1-.36,0q-8.25-6-16.52-12L6.45.82A4.1,4.1,0,0,0,4.38,0L4.17,0c-.3,0-.6,0-.9.09A4,4,0,0,0,0,3.88V44.5a4,4,0,0,0,3.71,4H7.78c.28,0,.29,0,.29-.29V13.86s0-.1,0-.15V12a1.36,1.36,0,0,1,.21.1l11.85,8.63.14.11,3.22,2.33,8.65,6.3.25.13,2.78-2L56.41,12.14a1,1,0,0,1,.21-.1v.08q0,18.09,0,36.16c0,.22.08.26.28.26H61c.21-.05.44-.07.65-.13a4,4,0,0,0,3-4V4.79A2.26,2.26,0,0,0,64.68,4.53Z"/></g></g></g></svg>