<svg xmlns="http://www.w3.org/2000/svg" viewBox="0 0 52.11 49.69"><defs><style>.cls-1{fill:#d7b09e;}.cls-2{fill:#a04e3e;}</style></defs><title>Asset 8</title><g id="Layer_2" data-name="Layer 2"><g id="Still"><g id="Socials"><circle class="cls-1" cx="28.91" cy="24.84" r="23.2"/><path class="cls-2" d="M49.42,9.69A12,12,0,0,0,39.63.24a53.3,53.3,0,0,0-8-.19H24.88c-4.88,0-11-.14-15,.19-.09,0-.11.07-.2.06s-.2,0-.29.1A11.79,11.79,0,0,0,.15,10.62v.15A4,4,0,0,0,.05,12V30.88c0,2.19,0,4.34,0,6.3A12.38,12.38,0,0,0,2.27,44.6a1.88,1.88,0,0,0,.39.5A8.89,8.89,0,0,0,4,46.52a2,2,0,0,0,.55.44,11.7,11.7,0,0,0,5.31,2.51c2.22.42,4.75.08,7.37.2H32c2.15,0,4.43,0,6.49-.05h.15a1.35,1.35,0,0,0,.64-.1h.1a11.77,11.77,0,0,0,10-9.11c.12-.12.08-.4.15-.58a1.16,1.16,0,0,0,.05-.44,74.91,74.91,0,0,0,.15-7.77V18.15C49.67,15.35,49.88,11.94,49.42,9.69ZM40.66,30.1a16.11,16.11,0,0,1-9.79,11.41h-.16c0,.08-.11.06-.15.11a4.06,4.06,0,0,0-.89.31,17.26,17.26,0,0,1-3.64.62c-.27,0-.67-.07-.84.06h-.37c-.19-.13-.61,0-.88-.06A16.08,16.08,0,0,1,9.4,30.46a17.75,17.75,0,0,1,.06-8c.13-.07.08-.32.15-.47V22a16.77,16.77,0,0,1,3.7-6.41,4.3,4.3,0,0,0,.67-.68,16.41,16.41,0,0,1,6.78-3.8.21.21,0,0,0,.16-.06c.12,0,.11-.09.26,0a16.85,16.85,0,0,1,5.41-.41A16,16,0,0,1,40.66,30.1ZM37.31,7.91a3.59,3.59,0,0,1,2.74-2.42,3.51,3.51,0,0,1,4.36,3.58C44.3,14.35,35.82,13.36,37.31,7.91Z"/><path class="cls-2" d="M25.47,15.6h-1c-.12,0-.35-.07-.39,0-5.48.72-8.6,3.8-9.79,8.8a.33.33,0,0,0,0,.24,3.87,3.87,0,0,0-.1.65v0c-.11.06,0,.31,0,.45a3.82,3.82,0,0,0,0,1.43A10.92,10.92,0,0,0,17,34a3.24,3.24,0,0,0,.59.58,10.83,10.83,0,0,0,6.59,2.86c.12.11.47,0,.68.05h.3c.23,0,.59.06.74-.05s.36.06.39,0h0c.32,0,.67,0,1-.11A10.94,10.94,0,0,0,36,27.19a3.39,3.39,0,0,0,0-1.27v-.39C35,19.67,31.63,16.24,25.47,15.6Z"/></g></g></g></svg>