<svg xmlns="http://www.w3.org/2000/svg" viewBox="0 0 20 10"><defs><style>.cls-1{fill:#a04e3e;}.cls-2{fill:#ffefee;}</style></defs><title>Pruun up nupp</title><g id="Layer_2" data-name="Layer 2"><g id="Layer_1-2" data-name="Layer 1"><polygon class="cls-1" points="10 0 0 10 20 10 10 0"/><path class="cls-2" d="M12.79,4.81,10.27,2.29a.39.39,0,0,0-.54,0L7.21,4.81a.4.4,0,0,0,0,.54.4.4,0,0,0,.27.11.36.36,0,0,0,.26-.11L9.63,3.46v5a.37.37,0,0,0,.37.38.38.38,0,0,0,.38-.38v-5l1.88,1.89a.36.36,0,0,0,.26.11.4.4,0,0,0,.27-.11A.4.4,0,0,0,12.79,4.81Z"/></g></g></svg>