<svg xmlns="http://www.w3.org/2000/svg" viewBox="0 0 20 10"><defs><style>.cls-1{fill:#a04e3e;}.cls-2{fill:#ffefee;}</style></defs><title>Pruun menu nupp</title><g id="Layer_2" data-name="Layer 2"><g id="Layer_1-2" data-name="Layer 1"><polygon class="cls-1" points="20 0 0 0 10 10 20 0"/><path class="cls-2" d="M15.25,2.21H4.75a.38.38,0,0,1,0-.75h10.5a.38.38,0,1,1,0,.75Z"/><path class="cls-2" d="M13.32,4.13H6.65a.37.37,0,0,1-.37-.38.36.36,0,0,1,.37-.37h6.67a.37.37,0,0,1,.37.37A.38.38,0,0,1,13.32,4.13Z"/><path class="cls-2" d="M11.41,6H8.56a.38.38,0,0,1,0-.75h2.85a.38.38,0,1,1,0,.75Z"/></g></g></svg>