<svg xmlns="http://www.w3.org/2000/svg" viewBox="0 0 20 10"><defs><style>.cls-1{fill:#819e9f;}.cls-2{fill:#e5f1f3;}</style></defs><title>Sinine menu nupp</title><g id="Layer_2" data-name="Layer 2"><g id="Layer_1-2" data-name="Layer 1"><polygon class="cls-1" points="20 0 0 0 10 10 20 0"/><path class="cls-2" d="M15.21,2.21H4.71a.38.38,0,1,1,0-.75h10.5a.38.38,0,0,1,0,.75Z"/><path class="cls-2" d="M13.28,4.13H6.61a.37.37,0,0,1-.37-.38.36.36,0,0,1,.37-.37h6.67a.37.37,0,0,1,.37.37A.38.38,0,0,1,13.28,4.13Z"/><path class="cls-2" d="M11.37,6H8.52a.38.38,0,0,1,0-.75h2.85a.38.38,0,1,1,0,.75Z"/></g></g></svg>