<svg xmlns="http://www.w3.org/2000/svg" viewBox="0 0 20 10"><defs><style>.cls-1{fill:#819e9f;}.cls-2{fill:#e5f1f3;}</style></defs><title>Sinine up nupp</title><g id="Layer_2" data-name="Layer 2"><g id="Layer_1-2" data-name="Layer 1"><polygon class="cls-1" points="0 10 20 10 10 0 0 10"/><path class="cls-2" d="M12.74,4.81,10.22,2.29A.39.39,0,0,0,10,2.18a.41.41,0,0,0-.27.11L7.17,4.81a.4.4,0,0,0,0,.54.4.4,0,0,0,.27.11.38.38,0,0,0,.26-.11L9.58,3.46v5a.38.38,0,0,0,.38.38.37.37,0,0,0,.37-.38v-5l1.88,1.89a.4.4,0,0,0,.27.11.36.36,0,0,0,.26-.11A.38.38,0,0,0,12.74,4.81Z"/></g></g></svg>